# xmcd
#
# Track frame offsets: 
#        150
#        11397
#        24562
#        34865
#        46337
#        66252
#        82125
#        93887
#        107160
#        121457
#        133720
#        143357
#
# Disc length: 2089 seconds
#
# Revision: 0
# Processed by: cddbd v1.5PL3 Copyright (c) Steve Scherf et al.
# Submitted via: ExactAudioCopy v0.95a5
#
DISCID=9a08270c
DTITLE=Various Artist - Country Classics Disc 2
DYEAR=1999
DGENRE=Country
TTITLE0=Billy Joe Spears/I'm So Lonesome I Could Cry
TTITLE1=Kenny Rogers/Ruby, Don't Take Your Gun To Town
TTITLE2=Faron Young/Hello Walls
TTITLE3=George Jones/She's My Rock
TTITLE4=Lee Greenwood/God Bless The USA
TTITLE5=Kathy Mattea/Heart Of The Country
TTITLE6=Waylon Jennings/Crying
TTITLE7=Johnny Tillotson/Let It Be Me
TTITLE8=Willie Nelson/Face Of A Fighter
TTITLE9=Kitty Wells/Lonely Side Of Town
TTITLE10=Dottie West/Rocky Top
TTITLE11=Kenny Rogers/Shine On Ruby Mountain
EXTD=
EXTT0=
EXTT1=
EXTT2=
EXTT3=
EXTT4=
EXTT5=
EXTT6=
EXTT7=
EXTT8=
EXTT9=
EXTT10=
EXTT11=
PLAYORDER=
